<?xml version="1.0" encoding="utf-8"?>
<!-- Generator: Adobe Illustrator 19.2.1, SVG Export Plug-In . SVG Version: 6.00 Build 0)  -->
<svg version="1.1" id="Layer_1" xmlns="http://www.w3.org/2000/svg" xmlns:xlink="http://www.w3.org/1999/xlink" x="0px" y="0px"
	 viewBox="0 0 24 24" style="enable-background:new 0 0 24 24;" xml:space="preserve">
<path d="M3.8,0C3.6,0,3.4,0,3.3,0C1.5,0.7,0.4,3.3,0.1,5c-0.8,5.8,3.7,10.8,7.8,14c3.7,2.9,10.8,7.7,14.9,3.1
	c0.5-0.6,1.2-1.4,1.1-2.2c-0.1-1.4-1.4-2.4-2.4-3.2c-0.8-0.6-2.4-2.1-3.4-2.1c-0.9,0-1.5,1-2,1.5l-1,1c-0.2,0.2-2.3-1.2-2.5-1.4
	c-0.9-0.6-1.7-1.2-2.4-1.9s-1.4-1.5-2-2.3C8,11.3,6.7,9.2,6.8,9.1c0,0,1.2-1.3,1.5-1.8C9,6.2,9.5,5.4,8.7,4.1C8.6,3.7,8.2,3.4,7.8,3
	C7.1,2.3,6.4,1.6,5.6,1.1C5.2,0.7,4.4,0.1,3.8,0z"/>
</svg>
