<svg xmlns="http://www.w3.org/2000/svg" viewBox="0 0 50 50">
    <path d="M 25 2 A 5 5 0 0 0 20.025391 6.5097656 C 19.237802 6.4683629 17.541562 6.5143295 16.527344 7.5292969 C 15.173344 8.8832969 15.546875 11.453125 15.546875 11.453125 C 15.546875 11.453125 18.116703 11.827656 19.470703 10.472656 C 19.937825 10.005535 20.191668 9.3936546 20.333984 8.7929688 A 5 5 0 0 0 25 12 A 5 5 0 0 0 30 7 A 5 5 0 0 0 25 2 z M 25 14 C 20.582 14 17 17.582 17 22 L 17 31 L 19 32 L 19 35 L 21.164062 35 L 22.300781 47 L 27.699219 47 L 28.835938 35 L 31 35 L 31 32 L 33 31 L 33 22 C 33 17.582 29.418 14 25 14 z"></path>
</svg>