<?xml version="1.0" encoding="utf-8"?>
<!-- Generator: Adobe Illustrator 19.2.1, SVG Export Plug-In . SVG Version: 6.00 Build 0)  -->
<svg version="1.1" id="Layer_1" xmlns="http://www.w3.org/2000/svg" xmlns:xlink="http://www.w3.org/1999/xlink" x="0px" y="0px"
	 viewBox="0 0 24 24" style="enable-background:new 0 0 24 24;" xml:space="preserve">
<path d="M5.8,0l1.7,5.4V9h1.4V5.2L10.4,0H9L8.2,3.6H8.1L7.2,0H5.8z M12.2,2.2c-0.6,0-1,0.2-1.3,0.5c-0.3,0.3-0.5,0.7-0.5,1.2v3.4
	c0,0.6,0.2,1,0.5,1.3c0.3,0.3,0.7,0.5,1.3,0.5c0.6,0,1-0.2,1.3-0.5c0.3-0.3,0.5-0.7,0.5-1.3V3.9c0-0.5-0.1-0.9-0.5-1.2
	C13.1,2.3,12.7,2.2,12.2,2.2z M15,2.3v5.6c0,0.4,0.1,0.7,0.2,0.9s0.4,0.3,0.7,0.3c0.2,0,0.4,0,0.7-0.2c0.2-0.1,0.5-0.4,0.7-0.6V9
	h1.2V2.3h-1.2v5c-0.1,0.1-0.2,0.3-0.4,0.4c-0.1,0.1-0.3,0.1-0.3,0.1c-0.1,0-0.2,0-0.2-0.1c-0.1-0.1-0.1-0.2-0.1-0.3V2.3H15z
	 M12.2,3.3c0.2,0,0.3,0,0.4,0.1c0.1,0.1,0.1,0.2,0.1,0.3v3.6c0,0.2,0,0.3-0.1,0.4C12.5,7.9,12.3,8,12.2,8c-0.2,0-0.3-0.1-0.4-0.2
	c-0.1-0.1-0.1-0.2-0.1-0.4c0,0,0-3.6,0-3.6c0-0.1,0-0.3,0.1-0.3S12,3.3,12.2,3.3z M12,10.5c-2.4,0-4.7,0-7,0.1
	c-1.6,0-2.9,1.3-2.9,2.9C2,14.8,2,16,2,17.3c0,1.2,0,2.5,0.1,3.7c0,1.6,1.3,2.9,2.9,2.9C7.3,24,9.6,24,12,24c2.4,0,4.7,0,7-0.1
	c1.6,0,2.9-1.3,2.9-2.9c0.1-1.2,0.1-2.5,0.1-3.7c0-1.2,0-2.5-0.1-3.8c0-1.6-1.3-2.9-2.9-2.9C16.7,10.6,14.4,10.5,12,10.5z M3.6,12.6
	h4.2c0.1,0,0.1,0,0.1,0.1V14c0,0.1,0,0.1-0.1,0.1H6.5v7.4c0,0.1,0,0.1-0.1,0.1H5c-0.1,0-0.2,0-0.2-0.1v-7.4H3.6
	c-0.1,0-0.2,0-0.2-0.1v-1.3C3.4,12.6,3.5,12.6,3.6,12.6z M12.4,12.6h1.2c0.1,0,0.2,0,0.2,0.1v2.5c0.1-0.1,0.2-0.2,0.3-0.2
	c0.2-0.1,0.4-0.2,0.6-0.2c0.4,0,0.7,0.2,1,0.5c0.2,0.3,0.3,0.8,0.3,1.3v3.6c0,0.5-0.1,0.9-0.3,1.2c-0.2,0.3-0.5,0.4-0.9,0.4
	c-0.3,0-0.5-0.1-0.7-0.2c-0.1-0.1-0.2-0.1-0.3-0.2v0.2c0,0.1-0.1,0.1-0.2,0.1h-1.2c-0.1,0-0.1,0-0.1-0.1v-8.8
	C12.2,12.6,12.3,12.6,12.4,12.6z M18.6,14.7c0.6,0,1.1,0.2,1.4,0.6c0.3,0.4,0.5,0.8,0.5,1.5v1.7c0,0.1-0.1,0.1-0.2,0.1h-2.2v1.1
	c0,0.4,0,0.6,0.1,0.6c0,0.1,0.1,0.2,0.3,0.2c0.2,0,0.3-0.1,0.3-0.1c0,0,0.1-0.2,0.1-0.7v-0.5c0-0.1,0-0.1,0.1-0.1h1.2
	c0.1,0,0.1,0,0.1,0.1v0.5c0,0.7-0.1,1.2-0.5,1.6c-0.3,0.4-0.8,0.6-1.5,0.6c-0.6,0-1.1-0.2-1.4-0.6c-0.3-0.4-0.5-0.9-0.5-1.6v-2.9
	c0-0.6,0.2-1.1,0.6-1.5C17.6,14.9,18,14.7,18.6,14.7z M7.7,14.9h1.2c0.1,0,0.2,0,0.2,0.1v5c0,0.2,0,0.2,0,0.2c0,0,0,0.1,0.1,0.1
	c0,0,0.1,0,0.3-0.1c0.1-0.1,0.2-0.2,0.3-0.3V15c0-0.1,0-0.1,0.1-0.1h1.2c0.1,0,0.1,0,0.1,0.1v6.5h0c0,0.1-0.1,0.1-0.2,0.1H10
	c-0.1,0-0.1,0-0.1-0.1v-0.4c-0.2,0.2-0.3,0.3-0.5,0.4c-0.3,0.2-0.5,0.2-0.8,0.2c-0.3,0-0.6-0.1-0.7-0.3c-0.2-0.2-0.2-0.5-0.2-0.9V15
	C7.6,15,7.6,14.9,7.7,14.9z M14.2,16.1c-0.1,0-0.2,0-0.3,0.1c-0.1,0-0.1,0.1-0.2,0.1v4c0.1,0.1,0.1,0.1,0.2,0.2c0.1,0,0.2,0,0.2,0
	c0.2,0,0.2,0,0.2-0.1c0,0,0.1-0.2,0.1-0.4v-3.4c0-0.2,0-0.3-0.1-0.4C14.3,16.2,14.3,16.1,14.2,16.1z M18.6,16.2
	c-0.1,0-0.3,0-0.3,0.1c0,0.1-0.1,0.2-0.1,0.5v0.5H19v-0.5c0-0.3-0.1-0.4-0.1-0.5C18.8,16.2,18.7,16.2,18.6,16.2z"/>
</svg>
